Coordinates
version=1
nRows=26
nColumns=24
inDegrees=yes

Units are S.I. units (second, meters, Newtons, ...)
Angles are in degrees.

endheader
time	pelvis_tilt	pelvis_list	pelvis_rotation	pelvis_tx	pelvis_ty	pelvis_tz	hip_flexion_r	hip_adduction_r	hip_rotation_r	knee_angle_r	ankle_angle_r	subtalar_angle_r	mtp_angle_r	hip_flexion_l	hip_adduction_l	hip_rotation_l	knee_angle_l	ankle_angle_l	subtalar_angle_l	mtp_angle_l	lumbar_extension	lumbar_bending	lumbar_rotation
      0.50800000	     -3.66683400	      0.71490152	      6.79873704	     -0.70616905	      0.88620846	      0.28824870	     28.55955407	     -1.86260440	     -9.04622165	     -3.31966898	      6.41568634	      3.11982757	      6.63561420	    -16.38009055	      1.03017271	      5.12025675	     -6.03410006	     14.56814309	     -0.11619716	      7.06710999	     -3.37069257	     -1.39809796	    -10.47406736
      0.51216667	     -3.73001973	      0.69512588	      6.84320459	     -0.70040507	      0.88483512	      0.28859826	     28.80174719	     -1.80108123	     -8.70168355	     -3.81675178	      6.41352581	      2.90600282	      6.61666365	    -16.47693495	      0.93003916	      5.14025111	     -6.52352910	     14.73926482	      0.04916760	      7.11572554	     -3.28344957	     -1.32309471	    -10.47404097
      0.51633333	     -3.80779530	      0.65219611	      6.87872366	     -0.69459281	      0.88346946	      0.28899727	     29.07071446	     -1.70973339	     -8.39662880	     -4.40912691	      6.23765415	      2.59063762	      6.58360571	    -16.52331342	      0.80018781	      5.04189915	     -7.07560392	     14.89068339	      0.42113285	      7.23149157	     -3.16999111	     -1.23780936	    -10.45355702
      0.52050000	     -3.86652771	      0.60205697	      6.89557037	     -0.68874611	      0.88214419	      0.28944043	     29.33461818	     -1.59877239	     -8.08118965	     -5.10865241	      6.09279183	      2.26667750	      6.56663777	    -16.59337628	      0.66790718	      4.98504925	     -7.62695302	     15.02039624	      0.67140195	      7.35869448	     -3.08463828	     -1.13355121	    -10.41745745
      0.52466667	     -3.92343462	      0.54025561	      6.90094637	     -0.68285319	      0.88084722	      0.28992064	     29.60361037	     -1.46831119	     -7.77653580	     -5.88854252	      5.88438471	      1.89998717	      6.56036799	    -16.64365031	      0.52462862	      4.89506855	     -8.22699485	     15.13026733	      0.94582675	      7.52059831	     -2.99084396	     -1.01360694	    -10.36201041
      0.52883333	     -3.95720756	      0.44567163	      6.89512325	     -0.67690278	      0.87960698	      0.29044919	     29.84373170	     -1.29062474	     -7.48669426	     -6.71512709	      5.61361304	      1.49110355	      6.57250209	    -16.68197636	      0.33893426	      4.69607802	     -8.90583423	     15.24630951	      1.31673376	      7.83759532	     -2.92270071	     -0.84590480	    -10.27332417
      0.53300000	     -4.01115605	      0.39274513	      6.85398443	     -0.67094669	      0.87835159	      0.29103464	     30.15620327	     -1.14336065	     -7.17769263	     -7.70064273	      5.37713644	      1.09122270	      6.58439448	    -16.73653136	      0.22213433	      4.64744949	     -9.51684966	     15.26531800	      1.43419390	      7.97859516	     -2.83197675	     -0.73849527	    -10.21303128
      0.53716667	     -4.07860140	      0.29932267	      6.82342163	     -0.66491426	      0.87712525	      0.29164095	     30.46777179	     -0.95587061	     -6.91718482	     -8.69435546	      4.97188954	      0.59463395	      6.61601713	    -16.72390852	      0.04845284	      4.47326064	    -10.22635136	     15.29146206	      1.78944567	      8.25438926	     -2.69989361	     -0.59203077	    -10.06929457
      0.54133333	     -4.10738921	      0.23007644	      6.75040422	     -0.65887673	      0.87597345	      0.29229114	     30.76099463	     -0.76960581	     -6.61453605	     -9.77231372	      4.64468818	      0.16663635	      6.63949979	    -16.75182496	     -0.08076256	      4.32288907	    -10.95391526	     15.24579980	      1.91817877	      8.43223799	     -2.63343471	     -0.44663747	     -9.97631156
      0.54550000	     -4.17404125	      0.14002977	      6.68182408	     -0.65278396	      0.87480926	      0.29298194	     31.09968439	     -0.56352261	     -6.34657379	    -10.89126217	      4.20854237	     -0.33704864	      6.66965541	    -16.71261733	     -0.23651523	      4.14156077	    -11.73187867	     15.17716673	      2.15440251	      8.65831843	     -2.50818580	     -0.30064975	     -9.81755941
      0.54966667	     -4.13921282	     -0.03082394	      6.58044655	     -0.64655063	      0.87381632	      0.29376139	     31.29675499	     -0.24140828	     -6.09772303	    -11.95980112	      3.69153677	     -0.87840833	      6.83291891	    -16.75010773	     -0.50803716	      3.70258700	    -12.58216723	     15.18965016	      2.75221101	      9.70749600	     -2.48210110	     -0.03278306	     -9.58003035
      0.55383333	     -4.22158657	     -0.08292777	      6.49828642	     -0.64042155	      0.87273203	      0.29446080	     31.68501009	     -0.07403019	     -5.85685282	    -13.20805109	      3.33044571	     -1.32014661	      6.85764706	    -16.67952256	     -0.59824212	      3.66547211	    -13.38724149	     14.91558910	      2.69505470	      9.91451503	     -2.33786546	      0.07018918	     -9.48459943
      0.55800000	     -4.28405163	     -0.17165832	      6.38981334	     -0.63421643	      0.87171129	      0.29523487	     32.04243845	      0.15092852	     -5.61187748	    -14.44933139	      2.91412942	     -1.78485044	      6.88793195	    -16.59892619	     -0.73373684	      3.50780613	    -14.25941545	     14.69702998	      2.79039887	     10.18962434	     -2.20646421	      0.22179180	     -9.29201485
      0.56216667	     -4.26343297	     -0.32153911	      6.28741690	     -0.62792932	      0.87086267	      0.29604119	     32.27907917	      0.44809010	     -5.40610369	    -15.63834814	      2.44547686	     -2.31187570	      7.52336851	    -16.56147292	     -0.97027101	      3.17981553	    -15.21148603	     14.45721673	      3.07633762	     15.81597443	     -2.16882945	      0.45698238	     -9.21677731
      0.56633333	     -4.31074993	     -0.42045214	      6.14898289	     -0.62162028	      0.86998195	      0.29684060	     32.61591892	      0.69495973	     -5.18223164	    -16.91147533	      2.15714010	     -2.64214539	      7.51508654	    -16.47511131	     -1.10097955	      3.03155164	    -16.12863668	     14.03739282	      3.03360544	     15.86227514	     -2.03007302	      0.64079163	     -8.94097998
      0.57050000	     -4.33224742	     -0.53522578	      6.02901731	     -0.61529430	      0.86920150	      0.29764609	     32.91886914	      0.95143484	     -5.00764804	    -18.18760196	      1.84917025	     -3.03226176	      7.49830103	    -16.36853953	     -1.26411029	      2.85451773	    -17.13278220	     13.71121008	      3.11384383	     16.00623494	     -1.92681661	      0.83246437	     -8.64986479
      0.57466667	     -4.34159448	     -0.65707756	      5.89616436	     -0.60893525	      0.86850738	      0.29847468	     33.19309150	      1.22585331	     -4.80952011	    -19.44632357	      1.61909172	     -3.37859536	      7.47652942	    -16.25030007	     -1.43164260	      2.66347268	    -18.18127280	     13.28428804	      3.16174551	     16.20031574	     -1.84653086	      1.03520993	     -8.43250625
      0.57883333	     -4.32650400	     -0.79072521	      5.75438270	     -0.60252302	      0.86794036	      0.29931880	     33.41249154	      1.52195806	     -4.60092953	    -20.66458894	      1.50513908	     -3.65335474	      7.45968509	    -16.14041938	     -1.61029850	      2.46627876	    -19.25120923	     12.72388812	      3.13929728	     16.34260195	     -1.78954570	      1.26356158	     -8.27950873
      0.58300000	     -4.32216839	     -0.91983909	      5.63034636	     -0.59613948	      0.86740830	      0.30013221	     33.65280197	      1.79340280	     -4.46449708	    -21.91238717	      1.37760153	     -3.93421098	      7.41525604	    -15.96167207	     -1.78945345	      2.27262225	    -20.42681575	     12.26223652	      3.20151397	     16.66485233	     -1.71500171	      1.47241180	     -7.99944783
      0.58716667	     -4.25535891	     -1.10564704	      5.50375458	     -0.58966975	      0.86707364	      0.30098971	     33.75902546	      2.14534052	     -4.29398910	    -23.03896770	      1.39147881	     -4.20434201	      6.68840542	    -15.82104412	     -2.05093897	      1.99414186	    -21.62853564	     11.59105316	      3.19025892	     21.42989604	     -1.71567614	      1.76536997	     -7.82563087
      0.59133333	     -4.21224673	     -1.23944795	      5.38456110	     -0.58322964	      0.86678691	      0.30177158	     33.90096707	      2.41813111	     -4.18699836	    -24.20733502	      1.48241011	     -4.32131065	      6.68514364	    -15.63292981	     -2.23330190	      1.83368320	    -22.86441535	     10.90369787	      3.13138395	     21.47362215	     -1.68326490	      1.99562382	     -7.64530280
      0.59550000	     -4.13332512	     -1.41261322	      5.27694702	     -0.57674548	      0.86665441	      0.30255386	     33.95097858	      2.73431836	     -4.08647973	    -25.28083088	      1.65323112	     -4.44814949	      6.67808189	    -15.45331027	     -2.46799437	      1.66833126	    -24.13742008	     10.14082424	      3.04852411	     21.52440853	     -1.68945676	      2.27848214	     -7.51010725
      0.59966667	     -4.05778302	     -1.57021086	      5.17418587	     -0.57031229	      0.86656416	      0.30332830	     33.99534058	      3.02572182	     -4.02054831	    -26.34066160	      1.86750246	     -4.51765533	      6.63922130	    -15.20506604	     -2.69944179	      1.44484537	    -25.52059535	      9.40971952	      3.06175454	     21.68651942	     -1.69498225	      2.52671271	     -7.27540547
      0.60383333	     -3.93525289	     -1.76166227	      5.08282308	     -0.56383125	      0.86667017	      0.30407380	     33.92377000	      3.35373831	     -3.96209413	    -27.28186188	      2.14989655	     -4.60242397	      6.62220199	    -14.99596774	     -2.96538922	      1.27407176	    -26.89186129	      8.54194031	      2.95071733	     21.76313646	     -1.75110629	      2.84481953	     -7.17788356
      0.60800000	     -3.81259809	     -1.94973671	      5.00112404	     -0.55738059	      0.86684907	      0.30479890	     33.82188758	      3.66837497	     -3.93441525	    -28.16992275	      2.48065378	     -4.63333810	      6.59959775	    -14.73440784	     -3.24121292	      1.06695965	    -28.33860694	      7.63051373	      2.88663295	     21.85482708	     -1.80703521	      3.14722460	     -7.04915149
      0.61216667	     -3.67910252	     -2.13656670	      4.92078434	     -0.55097353	      0.86708581	      0.30552613	     33.68562227	      3.97268881	     -3.95393163	    -29.01655391	      2.87266996	     -4.54007724	      6.50879800	    -14.43174691	     -3.53606740	      0.79383989	    -29.86457259	      6.77489877	      2.93699907	     22.13339757	     -1.88125970	      3.42410721	     -6.83096531
